<?xml version="1.0" standalone="no"?>
<!DOCTYPE svg PUBLIC "-//W3C//DTD SVG 20010904//EN"
 "http://www.w3.org/TR/2001/REC-SVG-20010904/DTD/svg10.dtd">
<svg version="1.0" xmlns="http://www.w3.org/2000/svg"
 width="64.000000pt" height="64.000000pt" viewBox="0 0 64.000000 64.000000"
 preserveAspectRatio="xMidYMid meet">

<g transform="translate(0.000000,64.000000) scale(0.100000,-0.100000)"
fill="#000000" stroke="none">
<path d="M270 573 c-8 -4 -20 -13 -26 -22 -10 -12 -15 -13 -27 -3 -13 11 -20
11 -39 0 -27 -15 -38 -29 -32 -39 2 -4 -3 -12 -11 -19 -13 -11 -14 -10 -9 4 7
17 -11 23 -21 6 -10 -16 14 -50 30 -44 8 4 15 12 15 18 0 18 43 56 63 56 9 0
20 -8 25 -17 9 -16 11 -16 27 0 9 9 30 17 46 17 29 0 43 -11 88 -67 14 -18 32
-30 45 -29 12 1 32 -11 46 -26 14 -16 35 -30 47 -32 32 -7 19 17 -18 31 -28
11 -29 14 -18 35 29 54 1 98 -54 84 -17 -4 -27 -1 -30 9 -3 7 -30 21 -58 29
-56 17 -65 18 -89 9z m180 -109 c0 -2 -9 0 -20 6 -11 6 -20 13 -20 16 0 2 9 0
20 -6 11 -6 20 -13 20 -16z"/>
<path d="M430 551 c0 -5 9 -7 20 -4 11 3 20 7 20 9 0 2 -9 4 -20 4 -11 0 -20
-4 -20 -9z"/>
<path d="M302 439 c-13 -5 -28 -7 -33 -3 -5 3 -9 1 -9 -4 0 -10 -36 -9 -46 1
-4 3 -16 1 -27 -4 -14 -8 -26 -8 -43 0 -29 13 -30 11 -4 -19 19 -22 20 -22 46
-5 25 16 27 16 48 -4 22 -21 51 -26 80 -15 9 3 14 10 11 14 -3 4 3 7 12 6 9 0
18 4 20 11 6 18 -29 32 -55 22z"/>
<path d="M415 407 c3 -6 24 -24 48 -39 23 -15 52 -36 65 -48 31 -29 40 -18 13
16 -11 15 -21 23 -21 18 0 -5 -13 6 -30 24 -16 18 -34 30 -40 27 -5 -3 -10 -1
-10 4 0 6 -7 11 -15 11 -8 0 -12 -6 -10 -13z"/>
<path d="M97 391 c-3 -11 -2 -22 1 -25 7 -8 31 27 26 36 -9 14 -22 8 -27 -11z"/>
<path d="M424 366 c1 -8 8 -21 15 -30 8 -9 11 -19 9 -22 -3 -3 -14 5 -24 18
-11 13 -30 24 -44 24 -14 1 -41 5 -60 9 l-35 8 18 -27 c14 -21 16 -30 7 -42
-11 -12 -16 -11 -41 3 -16 10 -29 22 -29 29 0 7 -11 10 -27 7 -67 -10 -74 -13
-69 -31 3 -9 -4 -33 -15 -52 -19 -33 -20 -34 -14 -7 4 20 2 27 -6 22 -14 -9
-4 28 18 65 13 22 11 22 -12 -4 -21 -23 -26 -36 -21 -59 3 -16 6 -37 6 -47 0
-9 14 -38 31 -64 29 -43 34 -46 64 -40 19 3 35 1 39 -5 5 -7 -5 -11 -28 -11
-46 0 -39 -19 21 -60 52 -35 53 -35 53 -12 1 15 2 15 15 -2 11 -14 15 -16 15
-5 1 21 50 55 59 40 6 -9 11 -8 21 3 7 9 16 14 20 11 4 -3 19 7 34 22 23 23
26 24 26 7 1 -18 1 -18 15 0 8 11 15 28 15 38 0 11 5 15 14 12 23 -9 24 40 2
95 -31 75 -99 155 -92 107z m62 -107 c7 -19 13 -45 13 -59 0 -16 -6 -8 -17 25
-9 28 -20 52 -24 53 -13 6 -9 24 4 20 6 -2 17 -20 24 -39z m-335 -72 c-8 -8
-11 -7 -11 4 0 20 13 34 18 19 3 -7 -1 -17 -7 -23z m119 18 c0 -9 -6 -12 -15
-9 -8 4 -15 10 -15 15 0 5 7 9 15 9 8 0 15 -7 15 -15z m-80 -11 c0 -8 -5 -12
-10 -9 -6 4 -8 11 -5 16 9 14 15 11 15 -7z m230 -16 c0 -5 -4 -8 -10 -8 -5 0
-10 10 -10 23 0 18 2 19 10 7 5 -8 10 -18 10 -22z m-50 -33 c0 -5 -5 -3 -10 5
-5 8 -10 20 -10 25 0 6 5 3 10 -5 5 -8 10 -19 10 -25z m-166 3 c-3 -4 -12 -8
-20 -8 -8 0 -14 4 -14 8 0 4 9 8 19 8 11 0 17 -4 15 -8z m106 3 c0 -15 -31
-22 -48 -10 -16 10 -16 10 0 5 10 -3 20 -1 23 4 8 13 25 13 25 1z"/>
<path d="M520 281 c0 -10 11 -26 25 -35 29 -19 30 -16 10 24 -18 34 -35 39
-35 11z"/>
</g>
</svg>
